<svg xmlns="http://www.w3.org/2000/svg" width="1em" height="1em" viewBox="0 0 24 24"><path fill="currentColor" d="M12 2a10 10 0 1 0 10 10A10.01 10.01 0 0 0 12 2m5.939 7.713v.646a.37.37 0 0 1-.38.37a5.36 5.36 0 0 1-2.903-1.108v4.728a3.94 3.94 0 0 1-1.18 2.81a4 4 0 0 1-2.87 1.17a4.1 4.1 0 0 1-2.862-1.17a3.98 3.98 0 0 1-1.026-3.805c.159-.642.48-1.232.933-1.713a3.58 3.58 0 0 1 2.79-1.313h.82v1.703a.348.348 0 0 1-.39.348a1.918 1.918 0 0 0-1.23 3.631c.27.155.572.246.882.267c.24.01.48-.02.708-.092a1.93 1.93 0 0 0 1.313-1.816V5.754a.36.36 0 0 1 .359-.36h1.415a.36.36 0 0 1 .359.34a3.3 3.3 0 0 0 1.282 2.245a3.25 3.25 0 0 0 1.641.636a.37.37 0 0 1 .338.35z"/></svg>